<svg width="343" height="99" viewBox="0 0 343 99" fill="none" xmlns="http://www.w3.org/2000/svg">
<g filter="url(#filter0_d_10_57)">
<path d="M35.0768 64.3318C38.3309 64.3318 41.3056 63.2844 44.0009 61.1895C46.6962 59.1434 49.1285 56.3422 51.2979 52.7859C53.5002 49.1808 55.423 45.1617 57.0665 40.7284C58.1183 37.9028 59.1044 35.0285 60.0248 32.1055C60.9451 29.1825 61.7997 26.43 62.5886 23.848C63.3775 21.2173 64.0842 18.9519 64.7087 17.052C65.3332 15.152 65.8591 13.788 66.2864 12.9598C64.4786 11.9854 62.3914 11.1329 60.0248 10.4021C57.691 9.62266 54.7656 9.08677 51.2486 8.79447C48.7834 8.5996 46.5811 9.01369 44.6418 10.0367C42.7354 11.0598 41.1084 12.4482 39.7607 14.202C38.4459 15.9071 37.427 17.7827 36.7038 19.8289C36.0136 21.875 35.6685 23.848 35.6685 25.748C35.6685 27.5505 35.9478 29.0364 36.5066 30.2056C37.0654 31.3261 37.7885 32.1542 38.676 32.6901C39.5964 33.226 40.5331 33.494 41.4864 33.494C42.6697 33.494 43.7051 33.1286 44.5925 32.3978C45.48 31.6671 46.2196 30.7902 46.8112 29.7671C47.4357 28.6953 47.8959 27.6966 48.1917 26.771C48.5204 25.7967 48.6848 25.0903 48.6848 24.6518V24.5788C48.8491 24.2865 49.0135 24.1403 49.1778 24.1403C49.5065 24.1403 49.6709 24.4813 49.6709 25.1634C49.5065 27.2582 48.997 29.0851 48.1424 30.644C47.3207 32.203 46.3182 33.3965 45.1349 34.2247C43.9516 35.0529 42.7025 35.467 41.3878 35.467C40.0401 35.467 38.7418 34.9798 37.4927 34.0055C36.2437 33.0311 35.2247 31.6184 34.4358 29.7671C33.647 27.9159 33.2525 25.6749 33.2525 23.0442C33.2525 20.9006 33.5648 18.7814 34.1893 16.6866C34.8467 14.5431 35.8164 12.5944 37.0983 10.8406C38.4131 9.03805 40.073 7.6009 42.078 6.52913C44.0831 5.45736 46.4497 4.92147 49.1778 4.92147C51.6102 4.92147 53.8124 5.26249 55.7846 5.94453C57.7896 6.62656 59.6961 7.47911 61.5039 8.50217C63.3446 9.47651 65.2017 10.4508 67.0753 11.4252C67.6012 10.4508 68.2093 9.54958 68.8995 8.72139C69.6227 7.84449 70.3458 7.40603 71.0689 7.40603C71.7263 7.40603 72.055 7.69834 72.055 8.28294C72.055 8.86754 71.8249 9.15984 71.3648 9.15984C70.8717 9.15984 70.3622 9.4765 69.8363 10.1098C69.3104 10.6944 68.8502 11.3521 68.4558 12.0829C70.7895 13.2034 73.0082 14.1777 75.1119 15.0059C77.2484 15.7853 79.0891 16.1751 80.634 16.1751C82.1131 16.1751 83.1649 16.0046 83.7894 15.6636C84.4468 15.3225 84.7755 14.7623 84.7755 13.9828C84.7755 13.6905 84.8084 13.4469 84.8741 13.2521C84.9727 13.0085 85.1371 12.8867 85.3672 12.8867C85.5315 12.8867 85.6466 13.1059 85.7123 13.5444C85.778 13.9341 85.8109 14.2508 85.8109 14.4943C85.8109 15.6636 85.3836 16.6135 84.529 17.3443C83.7073 18.075 82.6719 18.4404 81.4228 18.4404C80.3381 18.4404 79.0234 18.2212 77.4785 17.7827C75.9665 17.3443 74.3559 16.784 72.6467 16.102C70.9374 15.3713 69.2775 14.5674 67.6669 13.6905C66.4508 16.6135 65.4154 19.6096 64.5608 22.6788C63.739 25.6992 62.9666 28.7441 62.2435 31.8132C61.5532 34.8824 60.8136 37.9028 60.0248 40.8746C58.4142 46.818 56.4584 51.6654 54.1576 55.4166C51.8567 59.1191 49.1285 61.8229 45.973 63.528C42.8504 65.2818 39.2184 66.1587 35.0768 66.1587C31.2968 66.1587 28.0756 65.3305 25.4132 63.6741C22.7507 62.0177 20.7128 59.7767 19.2994 56.9512C17.9189 54.0769 17.2287 50.8859 17.2287 47.3783C17.2287 44.3578 17.5573 41.6053 18.2147 39.1208C18.905 36.6362 19.8418 34.5657 21.0251 32.9094C22.2413 31.253 23.6218 30.1568 25.1666 29.621C25.3967 29.621 25.5118 29.7428 25.5118 29.9863C25.5118 30.2299 25.4296 30.4248 25.2653 30.5709C23.556 32.0812 22.2413 34.2247 21.3209 37.0016C20.4334 39.7297 19.9897 42.604 19.9897 45.6245C19.9897 49.6193 20.6635 53.0051 22.0112 55.782C23.3917 58.5588 25.2159 60.678 27.4839 62.1395C29.7848 63.601 32.3158 64.3318 35.0768 64.3318Z" fill="white"/>
<path d="M71.1487 59.2165C69.9325 59.2165 69.0779 58.705 68.5848 57.6819C68.0918 56.6101 67.8453 55.3922 67.8453 54.0281C67.8453 53.2974 67.8946 52.5666 67.9932 51.8359C68.1247 51.0564 68.2726 50.35 68.4369 49.7167L71.7403 37.2208C71.8389 36.8311 71.8882 36.49 71.8882 36.1977C71.8882 35.7106 71.8061 35.2965 71.6417 34.9555C71.4774 34.5657 71.3623 34.2978 71.2966 34.1516L74.0083 34.0055C74.5014 33.9568 74.8465 34.0542 75.0437 34.2978C75.2738 34.4927 75.3888 34.7362 75.3888 35.0285C75.3888 35.3208 75.2738 35.8567 75.0437 36.6362C74.715 37.8054 74.2713 39.2669 73.7125 41.0207C73.1537 42.7745 72.5949 44.5771 72.0361 46.4283C71.5102 48.2795 71.0501 50.009 70.6556 51.6167C70.2941 53.2243 70.1133 54.4666 70.1133 55.3435C70.1133 55.9768 70.2119 56.5127 70.4091 56.9512C70.6392 57.3896 71.0172 57.6088 71.5431 57.6088C72.2334 57.6088 72.9072 57.2191 73.5646 56.4396C74.2548 55.6114 74.8958 54.564 75.4874 53.2974C76.0791 52.0308 76.6214 50.6667 77.1145 49.2052C77.6404 47.7437 78.0841 46.3796 78.4457 45.1129C78.8401 45.1129 79.0373 45.3322 79.0373 45.7706C78.7086 46.9885 78.2813 48.377 77.7554 49.9359C77.2295 51.4949 76.6214 52.9807 75.9312 54.3935C75.2738 55.7576 74.5342 56.9024 73.7125 57.8281C72.9236 58.7537 72.069 59.2165 71.1487 59.2165ZM75.5367 29.4748C75.1094 29.4748 74.7314 29.2312 74.4027 28.7441C74.1069 28.2569 73.959 27.6723 73.959 26.9902C73.959 26.1621 74.1891 25.4313 74.6493 24.798C75.1094 24.1159 75.6189 23.7749 76.1777 23.7749C76.6379 23.7749 77.0323 23.9942 77.361 24.4326C77.6897 24.8711 77.854 25.4313 77.854 26.1133C77.854 26.9902 77.624 27.7697 77.1638 28.4518C76.7036 29.1338 76.1613 29.4748 75.5367 29.4748Z" fill="white"/>
<path d="M94.0644 59.4357C93.3084 59.4357 92.6345 59.1191 92.0429 58.4857C91.4841 57.8524 91.2047 56.5614 91.2047 54.6127C91.2047 53.7846 91.2376 53.0051 91.3033 52.2743C91.4019 51.5436 91.517 50.7641 91.6485 49.9359C91.3526 50.6667 90.9418 51.5679 90.4159 52.6397C89.8899 53.7115 89.2983 54.7589 88.6409 55.782C88.0164 56.805 87.359 57.6576 86.6687 58.3396C86.0113 59.0216 85.3868 59.3627 84.7952 59.3627C83.9406 59.3627 83.2503 58.8024 82.7244 57.6819C82.1985 56.5127 81.9355 55.0025 81.9355 53.1512C81.9355 51.1538 82.2478 49.0103 82.8723 46.7206C83.4968 44.4309 84.3514 42.2387 85.4361 40.1438C86.5208 38.049 87.7699 36.3439 89.1832 35.0285C90.5966 33.7132 92.0758 33.0555 93.6206 33.0555C94.3766 33.0555 95.0998 33.2504 95.79 33.6401C96.4803 33.9811 97.0884 34.5657 97.6143 35.3939C97.8444 35.7349 97.9594 36.1247 97.9594 36.5631C97.9594 36.8554 97.8772 37.099 97.7129 37.2939C97.5485 37.4887 97.3349 37.5375 97.0719 37.44C96.7104 35.7349 95.9379 34.8824 94.7546 34.8824C94.1958 34.8824 93.5549 35.1503 92.8318 35.6862C91.9443 36.3683 90.9911 37.4644 89.9721 38.9746C88.986 40.4361 88.0492 42.1169 87.1618 44.0168C86.3072 45.8681 85.6005 47.7437 85.0417 49.6436C84.4829 51.5436 84.2035 53.273 84.2035 54.832C84.2035 56.4396 84.6144 57.2435 85.4361 57.2435C86.1593 57.2435 86.8988 56.7319 87.6548 55.7089C88.4437 54.6858 89.1832 53.4192 89.8735 51.909C90.5966 50.35 91.254 48.8154 91.8457 47.3052C92.4373 45.795 92.8975 44.5771 93.2262 43.6514C93.7192 42.3361 94.1794 41.24 94.6067 40.363C95.034 39.4861 95.6421 39.0477 96.431 39.0477C96.7925 39.0477 97.1541 39.1208 97.5157 39.2669C97.8772 39.4131 98.2552 39.4374 98.6497 39.34C97.6636 40.8015 96.7925 42.5309 96.0365 44.5283C95.3134 46.5257 94.7546 48.4988 94.3602 50.4475C93.9658 52.3474 93.7685 53.9551 93.7685 55.2704C93.7685 56.7319 94.0972 57.4627 94.7546 57.4627C95.2805 57.4627 95.8393 57.0242 96.431 56.1473C97.0555 55.2704 97.6471 54.1743 98.2059 52.8589C98.7976 51.4949 99.3399 50.1308 99.833 48.7667C100.326 47.3539 100.72 46.136 101.016 45.1129C101.181 45.1129 101.312 45.1373 101.411 45.186C101.542 45.2347 101.608 45.4296 101.608 45.7706C101.575 45.9655 101.509 46.1847 101.411 46.4283C101.345 46.6232 101.23 46.9885 101.066 47.5244C100.803 48.3039 100.441 49.3513 99.9809 50.6667C99.5207 51.982 98.9784 53.3218 98.3538 54.6858C97.7293 56.0012 97.0555 57.1217 96.3324 58.0473C95.6092 58.9729 94.8532 59.4357 94.0644 59.4357Z" fill="white"/>
<path d="M102.564 82.5276C99.4417 82.5276 97.8804 80.6276 97.8804 76.8277C97.8804 75.0251 98.3077 73.4175 99.1623 72.0047C100.017 70.5919 101.036 69.374 102.219 68.3509C103.863 66.8894 105.473 65.7202 107.051 64.8433C108.629 63.9664 110.141 63.1869 111.587 62.5049C113.033 61.8716 114.381 61.1652 115.63 60.3857C115.926 59.1191 116.172 57.7306 116.37 56.2204C116.567 54.6615 116.715 53.1512 116.813 51.6897C116.912 50.2282 116.961 48.9616 116.961 47.8898C116.961 46.7693 116.912 46.0386 116.813 45.6976C116.452 46.7206 115.959 47.9872 115.334 49.4975C114.743 51.0077 114.036 52.5179 113.214 54.0281C112.425 55.4897 111.587 56.7076 110.7 57.6819C109.812 58.6563 108.908 59.1434 107.988 59.1434C107.659 59.1434 107.347 59.0704 107.051 58.9242C106.131 58.3396 105.457 57.5114 105.03 56.4396C104.635 55.3679 104.438 54.1499 104.438 52.7859C104.438 50.5936 104.865 48.2308 105.72 45.6976C106.574 43.1643 107.593 40.8502 108.777 38.7554C109.73 37.0503 110.847 35.6862 112.129 34.6632C113.411 33.6401 114.71 33.1286 116.024 33.1286C117.536 33.1286 118.95 33.8837 120.265 35.3939C120.758 35.9785 121.004 36.6118 121.004 37.2939C121.004 38.0246 120.807 38.39 120.412 38.39C120.084 38.39 119.854 38.0733 119.722 37.44C119.262 35.6375 118.522 34.7362 117.504 34.7362C116.682 34.7362 115.745 35.2721 114.693 36.3439C113.641 37.367 112.655 38.6579 111.735 40.2169C110.946 41.5322 110.174 43.0425 109.418 44.7476C108.695 46.4527 108.086 48.1334 107.593 49.7898C107.133 51.4461 106.903 52.8833 106.903 54.1012C106.903 54.9294 107.035 55.6358 107.298 56.2204C107.561 56.805 107.971 57.0973 108.53 57.0973C109.286 57.0973 110.075 56.5614 110.897 55.4897C111.751 54.4179 112.557 53.1025 113.313 51.5436C114.102 49.9846 114.775 48.4013 115.334 46.7937C115.926 45.186 116.337 43.8463 116.567 42.7745C116.797 41.654 117.109 40.972 117.504 40.7284C117.898 40.4361 118.292 40.29 118.687 40.29C119.081 40.29 119.41 40.1438 119.673 39.8515C119.804 40.9233 119.887 42.0194 119.919 43.1399C119.985 44.2117 120.018 45.3078 120.018 46.4283C120.018 48.6693 119.919 50.7154 119.722 52.5666C119.558 54.4179 119.262 56.3909 118.835 58.4857C120.018 57.414 121.037 56.0743 121.892 54.4666C122.779 52.8102 123.502 51.1538 124.061 49.4975C124.653 47.7924 125.129 46.3309 125.491 45.1129C125.885 45.1129 126.082 45.3322 126.082 45.7706C125.655 47.086 125.113 48.6936 124.455 50.5936C123.831 52.4936 123.026 54.3448 122.04 56.1473C121.086 57.9011 119.887 59.2652 118.44 60.2396C117.882 62.578 117.076 65.0382 116.024 67.6202C115.005 70.2022 113.789 72.6137 112.376 74.8546C110.963 77.1443 109.418 78.9956 107.741 80.4084C106.065 81.8212 104.339 82.5276 102.564 82.5276ZM101.381 81.066C102.104 81.066 102.86 80.8225 103.649 80.3353C104.471 79.8968 105.243 79.361 105.966 78.7276C106.689 78.0943 107.248 77.5584 107.643 77.12C108.399 76.2431 109.171 75.1469 109.96 73.8316C110.749 72.5162 111.439 71.2496 112.031 70.0317C112.59 68.8625 113.165 67.6202 113.756 66.3048C114.348 65.0382 114.825 63.7715 115.186 62.5049L113.165 63.4549C112.08 63.942 110.88 64.5266 109.566 65.2087C108.284 65.9394 107.002 66.7433 105.72 67.6202C104.438 68.4971 103.271 69.4471 102.219 70.4701C101.299 71.3957 100.543 72.6137 99.9512 74.1239C99.3267 75.6341 99.0144 76.9495 99.0144 78.07C99.0144 78.8982 99.2117 79.6045 99.6061 80.1891C99.9677 80.7737 100.559 81.066 101.381 81.066Z" fill="white"/>
<path d="M133.403 59.2165C132.056 59.2165 131.053 58.5101 130.396 57.0973C129.771 55.6358 129.459 53.882 129.459 51.8359C129.459 49.9359 129.706 47.9629 130.199 45.9168C130.725 43.6758 131.448 41.6297 132.368 39.7784C133.321 37.9272 134.357 36.4413 135.474 35.3208C136.625 34.1516 137.759 33.567 138.876 33.567C140.224 33.567 141.21 34.2491 141.834 35.6131C142.492 36.9772 142.821 38.7067 142.821 40.8015C142.821 42.263 142.656 43.7976 142.327 45.4052C141.999 47.0129 141.555 48.5962 140.996 50.1552C141.424 50.7885 142.032 51.1051 142.821 51.1051C143.741 51.1051 144.53 50.6667 145.187 49.7898C145.845 48.9129 146.485 47.3539 147.11 45.1129C147.504 45.1129 147.702 45.3322 147.702 45.7706C147.077 48.0116 146.354 49.668 145.532 50.7398C144.743 51.7628 143.724 52.25 142.475 52.2013C141.719 52.2013 141.095 51.8846 140.602 51.2513C139.681 53.4923 138.58 55.3922 137.298 56.9512C136.049 58.4614 134.751 59.2165 133.403 59.2165ZM134.094 57.6088C134.85 57.6088 135.606 57.146 136.362 56.2204C137.118 55.2461 137.808 54.1499 138.432 52.932C139.057 51.7141 139.501 50.6667 139.764 49.7898C139.238 48.377 138.925 47.3296 138.827 46.6475C138.761 45.9168 138.728 45.3809 138.728 45.0399C138.728 44.1143 138.893 43.4079 139.221 42.9207C139.55 42.4335 139.879 42.1899 140.207 42.1899C140.668 42.1899 141.062 42.4822 141.391 43.0668C141.456 42.5309 141.506 42.0438 141.539 41.6053C141.571 41.1182 141.588 40.6553 141.588 40.2169C141.588 38.9503 141.424 37.9272 141.095 37.1477C140.799 36.3195 140.322 35.9054 139.665 35.9054C138.975 35.9054 138.252 36.3439 137.496 37.2208C136.74 38.0977 136.017 39.2669 135.326 40.7284C134.669 42.1899 134.094 43.8219 133.601 45.6245C133.173 47.1347 132.845 48.5718 132.615 49.9359C132.384 51.2513 132.269 52.4692 132.269 53.5897C132.269 54.8076 132.417 55.782 132.713 56.5127C133.009 57.2435 133.469 57.6088 134.094 57.6088Z" fill="white"/>
<path d="M180.774 67.0356C177.783 67.0356 175.121 66.1343 172.787 64.3318C170.486 62.578 168.678 59.9716 167.364 56.5127C166.082 53.0051 165.441 48.718 165.441 43.6514C165.441 40.631 165.704 37.6105 166.23 34.5901C166.756 31.5696 167.462 28.671 168.35 25.8941C169.27 23.1172 170.289 20.5596 171.407 18.2212C170.914 15.2982 170.667 12.1316 170.667 8.72139C170.667 6.13939 170.864 3.67919 171.259 1.34077C171.39 0.658737 171.62 0.317719 171.949 0.317719C172.212 0.317719 172.327 0.561303 172.294 1.04847C172.195 2.02281 172.113 3.07023 172.048 4.19072C171.982 5.26249 171.949 6.55349 171.949 8.06371C171.949 10.8893 172.13 13.5687 172.491 16.102C172.82 15.4687 173.149 14.8841 173.477 14.3482C174.825 12.1559 176.419 10.1098 178.26 8.20987C180.101 6.26119 182.138 4.70224 184.374 3.53304C186.642 2.36383 189.041 1.77923 191.572 1.77923C193.939 1.77923 196.108 2.43691 198.08 3.75226C200.052 5.0189 201.63 6.87015 202.813 9.306C204.03 11.6931 204.638 14.5918 204.638 18.002C204.638 20.1455 204.243 22.3378 203.454 24.5788C202.698 26.8197 201.597 28.8902 200.151 30.7902C198.738 32.6414 197.012 34.1516 194.974 35.3208C192.969 36.49 190.717 37.0747 188.219 37.0747C184.932 37.0747 181.925 36.0029 179.197 33.8593C176.469 31.7158 174.348 28.4518 172.836 24.0672C171.522 27.5261 170.552 31.0338 169.927 34.5901C169.303 38.1464 168.991 41.5323 168.991 44.7476C168.991 49.4244 169.517 53.2243 170.568 56.1473C171.62 59.0704 173.067 61.2139 174.907 62.578C176.781 63.9908 178.917 64.6972 181.317 64.6972C185.59 64.6972 189.337 63.0895 192.558 59.8742C195.812 56.7076 198.491 51.7872 200.595 45.1129C200.989 45.1129 201.186 45.3322 201.186 45.7706C199.148 52.9807 196.355 58.3152 192.805 61.7741C189.288 65.2818 185.278 67.0356 180.774 67.0356ZM174.957 19.1712C174.529 20.0481 174.118 20.9493 173.724 21.875C174.874 25.8698 176.633 29.0851 178.999 31.5209C181.366 33.9568 184.341 35.1747 187.924 35.1747C190.192 35.1747 192.213 34.6632 193.988 33.6401C195.796 32.6171 197.308 31.253 198.524 29.5479C199.773 27.8428 200.726 25.9672 201.384 23.9211C202.041 21.8262 202.37 19.7314 202.37 17.6366C202.37 15.0546 201.893 12.7893 200.94 10.8406C200.02 8.8919 198.754 7.38168 197.143 6.3099C195.533 5.18941 193.709 4.62917 191.671 4.62917C189.633 4.62917 187.578 5.26249 185.508 6.52913C183.47 7.79577 181.53 9.52522 179.69 11.7175C177.882 13.9097 176.304 16.3943 174.957 19.1712Z" fill="white"/>
<path d="M216.218 59.4357C215.462 59.4357 214.788 59.1191 214.196 58.4857C213.637 57.8524 213.358 56.5614 213.358 54.6127C213.358 53.7846 213.391 53.0051 213.457 52.2743C213.555 51.5436 213.67 50.7641 213.802 49.9359C213.506 50.6667 213.095 51.5679 212.569 52.6397C212.043 53.7115 211.452 54.7589 210.794 55.782C210.17 56.805 209.512 57.6576 208.822 58.3396C208.165 59.0216 207.54 59.3627 206.948 59.3627C206.094 59.3627 205.404 58.8024 204.878 57.6819C204.352 56.5127 204.089 55.0025 204.089 53.1512C204.089 51.1538 204.401 49.0103 205.026 46.7206C205.65 44.4309 206.505 42.2387 207.589 40.1438C208.674 38.049 209.923 36.3439 211.337 35.0285C212.75 33.7132 214.229 33.0555 215.774 33.0555C216.53 33.0555 217.253 33.2504 217.943 33.6401C218.634 33.9811 219.242 34.5657 219.768 35.3939C219.998 35.7349 220.113 36.1247 220.113 36.5631C220.113 36.8554 220.031 37.099 219.866 37.2939C219.702 37.4887 219.488 37.5375 219.225 37.44C218.864 35.7349 218.091 34.8824 216.908 34.8824C216.349 34.8824 215.708 35.1503 214.985 35.6862C214.098 36.3683 213.144 37.4644 212.125 38.9746C211.139 40.4361 210.203 42.1169 209.315 44.0168C208.46 45.8681 207.754 47.7437 207.195 49.6436C206.636 51.5436 206.357 53.273 206.357 54.832C206.357 56.4396 206.768 57.2435 207.589 57.2435C208.313 57.2435 209.052 56.7319 209.808 55.7089C210.597 54.6858 211.337 53.4192 212.027 51.909C212.75 50.35 213.407 48.8154 213.999 47.3052C214.591 45.795 215.051 44.5771 215.379 43.6514C215.873 42.3361 216.333 41.24 216.76 40.363C217.187 39.4861 217.795 39.0477 218.584 39.0477C218.946 39.0477 219.307 39.1208 219.669 39.2669C220.031 39.4131 220.409 39.4374 220.803 39.34C219.817 40.8015 218.946 42.5309 218.19 44.5283C217.467 46.5257 216.908 48.4988 216.513 50.4475C216.119 52.3474 215.922 53.9551 215.922 55.2704C215.922 56.7319 216.251 57.4627 216.908 57.4627C217.434 57.4627 217.993 57.0242 218.584 56.1473C219.209 55.2704 219.8 54.1743 220.359 52.8589C220.951 51.4949 221.493 50.1308 221.986 48.7667C222.479 47.3539 222.874 46.136 223.17 45.1129C223.334 45.1129 223.465 45.1373 223.564 45.186C223.695 45.2347 223.761 45.4296 223.761 45.7706C223.728 45.9655 223.663 46.1847 223.564 46.4283C223.498 46.6232 223.383 46.9885 223.219 47.5244C222.956 48.3039 222.594 49.3513 222.134 50.6667C221.674 51.982 221.132 53.3218 220.507 54.6858C219.883 56.0012 219.209 57.1217 218.486 58.0473C217.763 58.9729 217.007 59.4357 216.218 59.4357Z" fill="white"/>
<path d="M228.169 44.8937C228.432 44.0655 228.777 42.7502 229.204 40.9476C229.632 39.0964 230.075 37.0503 230.536 34.8093C230.996 32.5683 231.341 30.4491 231.571 28.4518C231.67 27.6723 231.85 27.112 232.113 26.771C232.376 26.3813 232.656 26.1864 232.951 26.1864C233.379 26.1864 233.773 26.5031 234.135 27.1364C234.496 27.721 234.677 28.5735 234.677 29.694C234.677 31.0581 234.398 32.2273 233.839 33.2017C233.313 34.176 232.656 35.1016 231.867 35.9785C232.195 36.0272 232.541 36.076 232.902 36.1247C233.264 36.1247 233.658 36.1247 234.085 36.1247C235.63 36.1247 237.159 35.9785 238.671 35.6862C238.736 35.9785 238.769 36.1977 238.769 36.3439C238.769 36.9772 238.638 37.781 238.375 38.7554C238.145 39.7297 237.898 40.6066 237.635 41.3861C237.504 41.8246 237.241 42.6284 236.846 43.7976C236.452 44.9181 236.025 46.2091 235.565 47.6706C235.104 49.0834 234.71 50.4962 234.381 51.909C234.085 53.273 233.938 54.4422 233.938 55.4166C233.938 56.6832 234.266 57.3165 234.924 57.3165C235.548 57.3165 236.419 56.2448 237.537 54.1012C238.654 51.909 239.772 48.9129 240.889 45.1129C241.284 45.1129 241.481 45.3322 241.481 45.7706C241.12 47.086 240.659 48.5231 240.101 50.0821C239.575 51.641 238.983 53.1269 238.326 54.5397C237.668 55.9037 236.962 57.0486 236.206 57.9742C235.45 58.8511 234.661 59.2896 233.839 59.2896C233.214 59.2896 232.59 58.9242 231.965 58.1934C231.341 57.414 231.029 56.1717 231.029 54.4666C231.029 52.9564 231.226 51.4949 231.62 50.0821C232.015 48.6206 232.458 47.2565 232.951 45.9899C233.444 44.7232 233.888 43.6027 234.283 42.6284C234.677 41.654 234.874 40.8746 234.874 40.29C234.874 39.4131 234.496 38.7797 233.74 38.39C233.017 38.0003 232.064 37.7811 230.881 37.7323C230.289 39.9733 229.845 41.6297 229.549 42.7015C229.254 43.7732 228.974 44.7963 228.711 45.7706C228.185 45.7706 228.005 45.4783 228.169 44.8937Z" fill="white"/>
<path d="M247.437 59.728C246.418 59.728 245.711 59.3383 245.316 58.5588C244.922 57.7794 244.725 56.7807 244.725 55.5627C244.725 54.2961 244.873 52.8589 245.169 51.2513C245.464 49.6436 245.859 47.8411 246.352 45.8437C245.99 45.8437 245.809 45.6001 245.809 45.1129C246.072 44.1386 246.352 43.0425 246.648 41.8246C246.976 40.5579 247.141 39.1451 247.141 37.5862C247.141 36.8067 247.075 36.149 246.943 35.6131C246.812 35.0773 246.615 34.7606 246.352 34.6632C246.352 34.6632 246.516 34.6144 246.845 34.517C247.206 34.4196 247.584 34.3221 247.979 34.2247C248.373 34.1273 248.636 34.0786 248.768 34.0786C248.965 34.0298 249.146 34.0055 249.31 34.0055C249.474 33.9568 249.622 33.9324 249.754 33.9324C250.082 33.9324 250.296 34.1273 250.395 34.517C250.526 34.9067 250.576 35.7593 250.543 37.0747C250.51 38.2926 250.345 39.7784 250.05 41.5322C249.754 43.2373 249.442 44.7232 249.113 45.9899C248.686 47.6462 248.291 49.327 247.93 51.0321C247.568 52.7371 247.387 54.1499 247.387 55.2704C247.387 56.2448 247.568 56.8781 247.93 57.1704C248.193 57.3165 248.423 57.3896 248.62 57.3896C249.376 57.3896 250.115 56.8537 250.839 55.782C251.562 54.7102 252.235 53.4192 252.86 51.909C253.517 50.35 254.06 48.8642 254.487 47.4514C254.29 46.3309 254.191 44.9912 254.191 43.4322C254.191 41.7758 254.323 40.0951 254.586 38.39C254.849 36.6849 255.259 35.2721 255.818 34.1516C256.377 32.9824 257.1 32.3978 257.988 32.3978C258.612 32.3978 258.924 32.8119 258.924 33.6401C258.924 33.835 258.76 34.6632 258.431 36.1247C258.136 37.5862 257.741 39.3156 257.248 41.313C256.755 43.3104 256.229 45.2347 255.67 47.086C255.539 47.4757 255.424 47.8655 255.325 48.2552C255.457 49.0834 255.703 49.7654 256.065 50.3013C256.426 50.7885 256.87 51.0321 257.396 51.0321C258.053 51.0321 258.661 50.5936 259.22 49.7167C259.812 48.7911 260.42 47.2565 261.044 45.1129C261.439 45.1129 261.636 45.3322 261.636 45.7706C261.11 47.7193 260.469 49.2782 259.713 50.4475C258.99 51.6167 258.168 52.2013 257.248 52.2013C256.13 52.2013 255.325 51.3487 254.832 49.6436C254.273 51.3487 253.616 52.9807 252.86 54.5397C252.104 56.0499 251.266 57.2922 250.345 58.2665C249.458 59.2409 248.488 59.728 247.437 59.728Z" fill="white"/>
<path d="M276.654 59.4357C275.898 59.4357 275.224 59.1191 274.632 58.4857C274.074 57.8524 273.794 56.5614 273.794 54.6127C273.794 53.7846 273.827 53.0051 273.893 52.2743C273.991 51.5436 274.107 50.7641 274.238 49.9359C273.942 50.6667 273.531 51.5679 273.005 52.6397C272.479 53.7115 271.888 54.7589 271.23 55.782C270.606 56.805 269.949 57.6576 269.258 58.3396C268.601 59.0216 267.976 59.3627 267.385 59.3627C266.53 59.3627 265.84 58.8024 265.314 57.6819C264.788 56.5127 264.525 55.0025 264.525 53.1512C264.525 51.1538 264.837 49.0103 265.462 46.7206C266.086 44.4309 266.941 42.2387 268.026 40.1438C269.11 38.049 270.359 36.3439 271.773 35.0285C273.186 33.7132 274.665 33.0555 276.21 33.0555C276.966 33.0555 277.689 33.2504 278.38 33.6401C279.07 33.9811 279.678 34.5657 280.204 35.3939C280.434 35.7349 280.549 36.1247 280.549 36.5631C280.549 36.8554 280.467 37.099 280.302 37.2939C280.138 37.4887 279.924 37.5375 279.661 37.44C279.3 35.7349 278.527 34.8824 277.344 34.8824C276.785 34.8824 276.144 35.1503 275.421 35.6862C274.534 36.3683 273.581 37.4644 272.562 38.9746C271.576 40.4361 270.639 42.1169 269.751 44.0168C268.897 45.8681 268.19 47.7437 267.631 49.6436C267.072 51.5436 266.793 53.273 266.793 54.832C266.793 56.4396 267.204 57.2435 268.026 57.2435C268.749 57.2435 269.488 56.7319 270.244 55.7089C271.033 54.6858 271.773 53.4192 272.463 51.909C273.186 50.35 273.844 48.8154 274.435 47.3052C275.027 45.795 275.487 44.5771 275.816 43.6514C276.309 42.3361 276.769 41.24 277.196 40.363C277.624 39.4861 278.232 39.0477 279.021 39.0477C279.382 39.0477 279.744 39.1208 280.105 39.2669C280.467 39.4131 280.845 39.4374 281.239 39.34C280.253 40.8015 279.382 42.5309 278.626 44.5283C277.903 46.5257 277.344 48.4988 276.95 50.4475C276.555 52.3474 276.358 53.9551 276.358 55.2704C276.358 56.7319 276.687 57.4627 277.344 57.4627C277.87 57.4627 278.429 57.0242 279.021 56.1473C279.645 55.2704 280.237 54.1743 280.795 52.8589C281.387 51.4949 281.929 50.1308 282.423 48.7667C282.916 47.3539 283.31 46.136 283.606 45.1129C283.77 45.1129 283.902 45.1373 284 45.186C284.132 45.2347 284.197 45.4296 284.197 45.7706C284.165 45.9655 284.099 46.1847 284 46.4283C283.935 46.6232 283.819 46.9885 283.655 47.5244C283.392 48.3039 283.031 49.3513 282.57 50.6667C282.11 51.982 281.568 53.3218 280.943 54.6858C280.319 56.0012 279.645 57.1217 278.922 58.0473C278.199 58.9729 277.443 59.4357 276.654 59.4357Z" fill="white"/>
<path d="M290.873 59.4357C289.657 59.4357 288.753 58.8998 288.161 57.8281C287.603 56.7076 287.323 55.3922 287.323 53.882C287.323 52.3231 287.471 50.7154 287.767 49.059C288.063 47.4026 288.326 46.0142 288.556 44.8937C289.082 42.1656 289.739 39.2669 290.528 36.1977C291.35 33.0799 292.237 30.0351 293.19 27.0633C294.177 24.0429 295.146 21.3391 296.099 18.952C296.855 17.052 297.661 15.6392 298.515 14.7136C299.403 13.7392 300.175 13.2521 300.833 13.2521C301.359 13.2521 301.769 13.5444 302.065 14.129C302.394 14.6649 302.558 15.493 302.558 16.6135C302.558 17.393 302.46 18.3186 302.262 19.3904C302.098 20.4622 301.802 21.6801 301.375 23.0442C300.225 26.8441 298.844 30.644 297.233 34.4439C295.656 38.2439 293.651 41.8002 291.218 45.1129C290.824 46.477 290.495 47.9385 290.232 49.4975C289.969 51.0564 289.838 52.3231 289.838 53.2974C289.838 56.3178 290.528 57.8281 291.909 57.8281C292.96 57.8281 294.127 56.7076 295.409 54.4666C296.691 52.1769 297.907 49.059 299.058 45.1129C299.189 45.1129 299.321 45.1617 299.452 45.2591C299.584 45.3078 299.649 45.4783 299.649 45.7706C299.288 47.086 298.828 48.5475 298.269 50.1552C297.743 51.7141 297.118 53.2 296.395 54.6127C295.705 56.0255 294.9 57.1948 293.979 58.1204C293.059 58.9973 292.024 59.4357 290.873 59.4357ZM291.613 42.7745C292.796 40.972 293.946 38.9015 295.064 36.5631C296.182 34.176 297.217 31.7158 298.17 29.1825C299.156 26.6005 299.978 24.1647 300.635 21.875C300.866 21.1442 301.046 20.3404 301.178 19.4635C301.342 18.5866 301.424 17.8558 301.424 17.2712C301.424 16.5892 301.309 16.2482 301.079 16.2482C300.948 16.2482 300.75 16.443 300.488 16.8328C300.225 17.1738 299.879 17.7827 299.452 18.6596C298.828 19.8776 298.137 21.5339 297.381 23.6288C296.658 25.7236 295.919 27.9646 295.163 30.3517C294.407 32.7388 293.716 35.0529 293.092 37.2939C292.467 39.4861 291.974 41.313 291.613 42.7745Z" fill="white"/>
<path d="M299.2 59.8011C300.581 55.6114 302.011 51.2269 303.49 46.6475C305.002 42.0194 306.547 37.367 308.124 32.6901C309.702 28.0133 311.263 23.5557 312.808 19.3173C313.367 17.8558 313.876 16.711 314.337 15.8828C314.83 15.0546 315.471 14.6405 316.259 14.6405C316.555 14.6405 316.9 14.7136 317.295 14.8597C317.689 15.0059 318.067 15.0302 318.429 14.9328C318.002 15.6148 317.41 16.8084 316.654 18.5135C315.931 20.2186 315.109 22.2647 314.189 24.6518C313.301 27.039 312.348 29.621 311.329 32.3978C310.343 35.126 309.357 37.9028 308.371 40.7284C307.418 43.5053 306.53 46.1116 305.708 48.5475C306.366 47.2809 307.04 46.0873 307.73 44.9668C308.42 43.8463 309.094 42.872 309.751 42.0438C310.474 41.0694 311.378 40.0464 312.463 38.9746C313.581 37.9028 314.682 36.9772 315.766 36.1977C316.884 35.4183 317.771 35.0285 318.429 35.0285C318.659 35.0285 318.823 35.0529 318.922 35.1016C318.922 35.1016 318.741 35.5888 318.38 36.5631C318.018 37.5375 317.558 38.7797 316.999 40.29C316.473 41.8002 315.914 43.4322 315.323 45.186C314.764 46.9398 314.271 48.6206 313.844 50.2282C313.416 51.7872 313.137 53.0782 313.005 54.1012C312.907 54.8807 312.857 55.5384 312.857 56.0743C312.857 56.8537 312.956 57.3896 313.153 57.6819C313.351 57.9255 313.564 58.0473 313.794 58.0473C314.353 58.0473 314.945 57.6332 315.569 56.805C316.227 55.9281 316.868 54.832 317.492 53.5166C318.117 52.2013 318.692 50.8128 319.218 49.3513C319.777 47.8411 320.22 46.4283 320.549 45.1129C320.943 45.1129 321.141 45.3322 321.141 45.7706C320.779 47.086 320.319 48.5475 319.76 50.1552C319.234 51.7141 318.626 53.2 317.936 54.6127C317.246 56.0255 316.49 57.1948 315.668 58.1204C314.846 59.046 313.975 59.5088 313.055 59.5088C312.397 59.5088 311.723 59.1678 311.033 58.4857C310.343 57.8037 309.998 56.5614 309.998 54.7589C309.998 54.223 310.031 53.6628 310.096 53.0782C310.162 52.4448 310.277 51.7385 310.442 50.959C310.639 49.9846 310.967 48.9129 311.428 47.7437C311.888 46.5257 312.479 45.0155 313.203 43.213C313.531 42.3848 313.696 41.7271 313.696 41.24C313.696 40.6553 313.498 40.363 313.104 40.363C312.775 40.363 312.332 40.6066 311.773 41.0938C311.214 41.581 310.507 42.4335 309.653 43.6514C308.831 44.8206 307.812 46.5257 306.596 48.7667C305.38 51.0077 304.081 54.1499 302.701 58.1934C302.471 58.8268 302.208 59.1678 301.912 59.2165C301.649 59.2165 301.287 59.2409 300.827 59.2896C300.531 59.3383 300.236 59.3627 299.94 59.3627C299.644 59.4114 299.397 59.5575 299.2 59.8011Z" fill="white"/>
<path d="M328.435 59.2165C327.087 59.2165 326.084 58.5101 325.427 57.0973C324.802 55.6358 324.49 53.882 324.49 51.8359C324.49 49.9359 324.737 47.9629 325.23 45.9168C325.756 43.6758 326.479 41.6297 327.399 39.7784C328.352 37.9272 329.388 36.4413 330.505 35.3208C331.656 34.1516 332.79 33.567 333.907 33.567C335.255 33.567 336.241 34.2491 336.866 35.6131C337.523 36.9772 337.852 38.7067 337.852 40.8015C337.852 42.263 337.687 43.7976 337.359 45.4052C337.03 47.0129 336.586 48.5962 336.027 50.1552C336.455 50.7885 337.063 51.1051 337.852 51.1051C338.772 51.1051 339.561 50.6667 340.218 49.7898C340.876 48.9129 341.517 47.3539 342.141 45.1129C342.536 45.1129 342.733 45.3322 342.733 45.7706C342.108 48.0116 341.385 49.668 340.563 50.7398C339.775 51.7628 338.756 52.25 337.507 52.2013C336.751 52.2013 336.126 51.8846 335.633 51.2513C334.713 53.4923 333.612 55.3922 332.33 56.9512C331.081 58.4614 329.782 59.2165 328.435 59.2165ZM329.125 57.6088C329.881 57.6088 330.637 57.146 331.393 56.2204C332.149 55.2461 332.839 54.1499 333.464 52.932C334.088 51.7141 334.532 50.6667 334.795 49.7898C334.269 48.377 333.957 47.3296 333.858 46.6475C333.792 45.9168 333.759 45.3809 333.759 45.0399C333.759 44.1143 333.924 43.4079 334.252 42.9207C334.581 42.4335 334.91 42.1899 335.239 42.1899C335.699 42.1899 336.093 42.4822 336.422 43.0668C336.488 42.5309 336.537 42.0438 336.57 41.6053C336.603 41.1182 336.619 40.6553 336.619 40.2169C336.619 38.9503 336.455 37.9272 336.126 37.1477C335.83 36.3195 335.354 35.9054 334.696 35.9054C334.006 35.9054 333.283 36.3439 332.527 37.2208C331.771 38.0977 331.048 39.2669 330.357 40.7284C329.7 42.1899 329.125 43.8219 328.632 45.6245C328.204 47.1347 327.876 48.5718 327.646 49.9359C327.416 51.2513 327.301 52.4692 327.301 53.5897C327.301 54.8076 327.448 55.782 327.744 56.5127C328.04 57.2435 328.5 57.6088 329.125 57.6088Z" fill="white"/>
</g>
<rect x="335.607" y="61.7961" width="5.38988" height="6.13599" fill="#FF0202" stroke="white"/>
<defs>
<filter id="filter0_d_10_57" x="0.228653" y="0.317719" width="342.504" height="98.2098" filterUnits="userSpaceOnUse" color-interpolation-filters="sRGB">
<feFlood flood-opacity="0" result="BackgroundImageFix"/>
<feColorMatrix in="SourceAlpha" type="matrix" values="0 0 0 0 0 0 0 0 0 0 0 0 0 0 0 0 0 0 127 0" result="hardAlpha"/>
<feOffset dx="-13" dy="12"/>
<feGaussianBlur stdDeviation="2"/>
<feComposite in2="hardAlpha" operator="out"/>
<feColorMatrix type="matrix" values="0 0 0 0 1 0 0 0 0 1 0 0 0 0 1 0 0 0 0.19 0"/>
<feBlend mode="normal" in2="BackgroundImageFix" result="effect1_dropShadow_10_57"/>
<feBlend mode="normal" in="SourceGraphic" in2="effect1_dropShadow_10_57" result="shape"/>
</filter>
</defs>
</svg>
